# xmcd
#
# Track frame offsets:
#  150
#  15123
#  34560
#  49083
#
# Disc length: 868 seconds
#
# Revision: 1
# Processed by: cddbd v1.5.1PL2 Copyright (c) Steve Scherf et al.
# Submitted via: Collectorz.com_Music_Collector 6.11
#
DISCID=1e036204
DTITLE=Amber Lawrence - I've Got THe Blues
DYEAR=2005
DGENRE=
TTITLE0=I've got The Blues
TTITLE1=The LOnely Road
TTITLE2=I'm Still Allright
TTITLE3=What's She Got?
EXTD=
EXTT0=
EXTT1=
EXTT2=
EXTT3=
PLAYORDER=
